<?xml version="1.0" encoding="utf-8"?>
<!-- Generator: Adobe Illustrator 27.5.0, SVG Export Plug-In . SVG Version: 6.00 Build 0)  -->
<svg version="1.1" xmlns="http://www.w3.org/2000/svg" xmlns:xlink="http://www.w3.org/1999/xlink" x="0px" y="0px"
	 viewBox="0 0 500 500" style="enable-background:new 0 0 500 500;" xml:space="preserve">
<g id="Background_Complete">
	<g>
		<path style="fill:#F5F5F5;" d="M395.705,450.154c0,0-8.308-14.682-6.194-18.72c2.114-4.038,4.617-5.341,9.315-4.255
			c4.698,1.086,6.033-1.374,7.931-5.284c1.898-3.91,8.061-8.508,15.12-4.203c5.805,3.541,0.189,11.225,3.799,12.092
			c4.196,1.009,10.866,4.463,10.431,12.282c-0.434,7.819-7.61,10.361-10.431,11.094
			C422.854,453.893,395.705,450.154,395.705,450.154z"/>
		<g>
			<polygon style="fill:#E0E0E0;" points="412.477,456.472 433.38,456.472 435.279,446.439 389.511,446.439 391.41,456.472 
				412.313,456.472 			"/>
			<g>
				<g>
					<g>
						<path style="fill:#E0E0E0;" d="M376.631,382.423c1.581,8.352,3.162,16.705,4.744,25.057
							c2.523,13.324,5.045,26.648,7.567,39.972c0.582,3.073,1.164,6.147,1.746,9.22c0.06,0.32,0.414,0.551,0.723,0.551
							c11.084,0,22.168,0,33.253,0c2.906,0,5.811,0,8.717,0c0.307,0,0.663-0.231,0.723-0.551c1.581-8.352,3.162-16.704,4.744-25.057
							c2.522-13.324,5.045-26.648,7.567-39.972c0.582-3.073,1.164-6.147,1.746-9.22c0.089-0.472-0.204-0.949-0.723-0.949
							c-7.913,0-15.825,0-23.738,0c-12.56,0-25.121,0-37.681,0c-2.888,0-5.775,0-8.663,0c-0.965,0-0.967,1.5,0,1.5
							c7.913,0,15.825,0,23.738,0c12.56,0,25.121,0,37.681,0c2.888,0,5.775,0,8.663,0c-0.241-0.316-0.482-0.633-0.723-0.949
							c-1.581,8.352-3.163,16.705-4.744,25.057c-2.522,13.324-5.045,26.648-7.567,39.972c-0.582,3.073-1.164,6.147-1.745,9.22
							c0.241-0.184,0.482-0.367,0.723-0.551c-11.084,0-22.168,0-33.253,0c-2.906,0-5.811,0-8.717,0
							c0.241,0.184,0.482,0.367,0.723,0.551c-1.581-8.352-3.162-16.705-4.744-25.057c-2.522-13.324-5.045-26.648-7.567-39.972
							c-0.582-3.073-1.164-6.147-1.745-9.22C377.898,381.077,376.452,381.478,376.631,382.423z"/>
					</g>
				</g>
				<g>
					<g>
						<path style="fill:#E0E0E0;" d="M388.788,382.423c1.166,7.977,2.333,15.954,3.499,23.932
							c1.861,12.728,3.722,25.457,5.583,38.186c0.43,2.94,0.86,5.88,1.29,8.82c0.047,0.32,0.424,0.551,0.723,0.551
							c2.608,0,5.217,0,7.825,0c0.394,0,0.766-0.344,0.75-0.75c-0.304-7.973-0.609-15.946-0.913-23.919
							c-0.487-12.755-0.974-25.51-1.461-38.266c-0.111-2.917-0.223-5.835-0.334-8.752c-0.037-0.962-1.537-0.967-1.5,0
							c0.305,7.973,0.609,15.946,0.913,23.919c0.487,12.755,0.974,25.51,1.461,38.266c0.111,2.917,0.223,5.835,0.334,8.752
							c0.25-0.25,0.5-0.5,0.75-0.75c-2.608,0-5.217,0-7.825,0c0.241,0.184,0.482,0.367,0.723,0.551
							c-1.166-7.977-2.333-15.954-3.499-23.932c-1.861-12.728-3.722-25.457-5.583-38.185c-0.43-2.94-0.86-5.88-1.289-8.82
							C390.095,381.073,388.649,381.477,388.788,382.423L388.788,382.423z"/>
					</g>
				</g>
				<g>
					<g>
						<path style="fill:#E0E0E0;" d="M419.598,382.224c-0.136,7.682-0.271,15.364-0.407,23.046
							c-0.216,12.24-0.432,24.481-0.648,36.721c-0.049,2.804-0.099,5.609-0.149,8.414c-0.008,0.442,0.353,0.701,0.75,0.75
							c2.809,0.35,5.618,0.701,8.427,1.051c0.433,0.054,0.71-0.39,0.75-0.75c0.867-7.791,1.735-15.582,2.602-23.372
							c1.383-12.425,2.766-24.85,4.15-37.275c0.319-2.862,0.637-5.723,0.956-8.585c0.107-0.958-1.394-0.95-1.5,0
							c-0.867,7.791-1.735,15.582-2.602,23.372c-1.383,12.425-2.766,24.85-4.15,37.275c-0.319,2.862-0.637,5.723-0.956,8.585
							c0.25-0.25,0.5-0.5,0.75-0.75c-2.809-0.35-5.618-0.701-8.427-1.051c0.25,0.25,0.5,0.5,0.75,0.75
							c0.136-7.682,0.271-15.364,0.407-23.046c0.216-12.24,0.432-24.481,0.648-36.721c0.05-2.805,0.099-5.609,0.149-8.414
							C421.115,381.258,419.615,381.258,419.598,382.224L419.598,382.224z"/>
					</g>
				</g>
				<g>
					<g>
						<path style="fill:#E0E0E0;" d="M380.08,397.373c7.211,0,14.421,0,21.632,0c11.476,0,22.952,0,34.428,0
							c2.612,0,5.223,0,7.835,0c0.965,0,0.967-1.5,0-1.5c-7.211,0-14.421,0-21.632,0c-11.476,0-22.952,0-34.428,0
							c-2.612,0-5.223,0-7.835,0C379.115,395.873,379.113,397.373,380.08,397.373L380.08,397.373z"/>
					</g>
				</g>
				<g>
					<g>
						<path style="fill:#E0E0E0;" d="M382.692,411.172c6.708,0,13.415,0,20.123,0c10.643,0,21.285,0,31.928,0
							c2.451,0,4.903,0,7.354,0c0.965,0,0.967-1.5,0-1.5c-6.708,0-13.415,0-20.123,0c-10.643,0-21.285,0-31.928,0
							c-2.451,0-4.903,0-7.354,0C381.727,409.672,381.725,411.172,382.692,411.172L382.692,411.172z"/>
					</g>
				</g>
				<g>
					<g>
						<path style="fill:#E0E0E0;" d="M385.114,423.964c6.147,0,12.295,0,18.443,0c9.796,0,19.591,0,29.387,0
							c2.244,0,4.489,0,6.733,0c0.965,0,0.967-1.5,0-1.5c-6.148,0-12.295,0-18.443,0c-9.796,0-19.591,0-29.386,0
							c-2.244,0-4.489,0-6.733,0C384.149,422.464,384.147,423.964,385.114,423.964L385.114,423.964z"/>
					</g>
				</g>
				<g>
					<g>
						<path style="fill:#E0E0E0;" d="M387.478,436.454c5.6,0,11.2,0,16.801,0c8.94,0,17.88,0,26.82,0c2.071,0,4.142,0,6.212,0
							c0.965,0,0.967-1.5,0-1.5c-5.6,0-11.2,0-16.8,0c-8.94,0-17.88,0-26.82,0c-2.071,0-4.142,0-6.212,0
							C386.513,434.954,386.512,436.454,387.478,436.454L387.478,436.454z"/>
					</g>
				</g>
			</g>
		</g>
	</g>
	<g>
		<path style="fill-rule:evenodd;clip-rule:evenodd;fill:#EAEAEA;" d="M63.694,302.232c1.245,0.649,2.382,1.455,3.389,2.387
			l3.621-1.289l3.404,5.373l-2.712,2.724c0.413,1.309,0.657,2.681,0.712,4.085l3.471,1.649l-1.393,6.206l-3.842,0.008
			c-0.648,1.246-1.456,2.383-2.388,3.39l1.289,3.622l-5.372,3.404l-2.724-2.712c-1.309,0.413-2.681,0.656-4.085,0.711l-1.648,3.471
			l-6.206-1.392l-0.008-3.843c-1.246-0.648-2.382-1.455-3.389-2.388l-3.622,1.289l-3.404-5.372l2.713-2.724
			c-0.413-1.309-0.656-2.681-0.711-4.085l-3.471-1.649l1.392-6.206l3.842-0.008c0.648-1.246,1.455-2.383,2.388-3.39l-1.289-3.622
			l5.372-3.404l2.724,2.712c1.309-0.413,2.681-0.656,4.085-0.711l1.648-3.471l6.205,1.392L63.694,302.232L63.694,302.232z
			 M58.223,309.535c-3.676-0.825-7.326,1.487-8.151,5.164c-0.825,3.677,1.488,7.326,5.164,8.15c3.677,0.825,7.326-1.487,8.15-5.164
			C64.211,314.008,61.9,310.359,58.223,309.535z"/>
	</g>
	<g>
		<path style="fill-rule:evenodd;clip-rule:evenodd;fill:#F0F0F0;" d="M448.579,327.661c1.114,0.58,2.131,1.302,3.032,2.136
			l3.239-1.153l3.045,4.806l-2.426,2.437c0.369,1.171,0.588,2.398,0.637,3.654l3.105,1.475l-1.246,5.551l-3.437,0.008
			c-0.58,1.115-1.302,2.131-2.136,3.032l1.153,3.24l-4.805,3.044l-2.437-2.426c-1.171,0.369-2.398,0.587-3.654,0.636l-1.474,3.105
			l-5.552-1.245l-0.007-3.437c-1.115-0.58-2.131-1.302-3.032-2.136l-3.24,1.153l-3.045-4.806l2.427-2.437
			c-0.369-1.171-0.587-2.398-0.636-3.654l-3.104-1.475l1.245-5.551l3.437-0.007c0.58-1.115,1.302-2.132,2.136-3.032l-1.153-3.24
			l4.805-3.045l2.437,2.426c1.171-0.369,2.398-0.587,3.654-0.636l1.474-3.105l5.551,1.245L448.579,327.661L448.579,327.661z
			 M443.685,334.193c-3.289-0.738-6.553,1.33-7.291,4.619c-0.738,3.289,1.331,6.553,4.619,7.291
			c3.289,0.738,6.553-1.331,7.291-4.619C449.042,338.194,446.974,334.931,443.685,334.193z"/>
	</g>
	<g>
		<path style="fill-rule:evenodd;clip-rule:evenodd;fill:none;stroke:#F0F0F0;stroke-miterlimit:10;" d="M422.274,63.592
			c2.358,1.229,4.51,2.755,6.417,4.52l6.856-2.441l6.444,10.172l-5.135,5.157c0.782,2.478,1.244,5.076,1.347,7.734l6.572,3.121
			l-2.637,11.749l-7.275,0.016c-1.228,2.359-2.756,4.511-4.522,6.417l2.441,6.857l-10.17,6.444l-5.158-5.135
			c-2.478,0.782-5.076,1.242-7.734,1.345l-3.12,6.572l-11.75-2.635l-0.015-7.275c-2.359-1.228-4.51-2.755-6.417-4.521l-6.858,2.441
			l-6.444-10.172l5.136-5.157c-0.781-2.478-1.242-5.076-1.347-7.733l-6.571-3.121l2.635-11.75l7.275-0.015
			c1.228-2.359,2.756-4.512,4.522-6.418l-2.441-6.857l10.17-6.444l5.158,5.136c2.478-0.782,5.075-1.243,7.734-1.346l3.12-6.571
			l11.749,2.635L422.274,63.592L422.274,63.592z M411.915,77.418c-6.96-1.561-13.87,2.815-15.431,9.777
			c-1.561,6.961,2.817,13.869,9.777,15.431c6.962,1.561,13.87-2.816,15.431-9.777C423.253,85.887,418.877,78.979,411.915,77.418z"/>
	</g>
	<g>
		<g>
			<path style="fill:#FFFFFF;stroke:#E0E0E0;stroke-miterlimit:10;" d="M453.137,148.065h-31.236c-3.991,0-7.226,3.075-7.226,6.868
				v12.121v4.239v13.28l7.347-6.412h31.116c3.991,0,7.226-3.075,7.226-6.868v-16.36
				C460.363,151.141,457.128,148.065,453.137,148.065z"/>
		</g>
		<g>
			<path style="fill:#E0E0E0;" d="M449.546,171.589h-21.749c-1.54,0-2.788-1.248-2.788-2.788v-11.237
				c0-1.54,1.248-2.788,2.788-2.788h21.749c1.54,0,2.788,1.248,2.788,2.788v11.237C452.335,170.341,451.086,171.589,449.546,171.589
				z"/>
			<path style="fill:#FFFFFF;" d="M450.835,155.177c-0.178-0.102-0.367-0.184-0.566-0.248l-11.598,8.318l-11.598-8.318
				c-0.199,0.064-0.388,0.146-0.566,0.248l12.163,8.723L450.835,155.177z"/>
		</g>
	</g>
	<g>
		<rect x="56.448" y="44.939" style="fill:#FFFFFF;stroke:#E0E0E0;stroke-miterlimit:10;" width="292.847" height="197.692"/>
		<g>
			<g>
				<g>
					<path style="fill:#E0E0E0;" d="M114.775,60.577c0,1.598,0,3.195,0,4.793c0,4.348,0,8.696,0,13.044c0,6.43,0,12.861,0,19.291
						c0,7.845,0,15.69,0,23.536c0,8.551,0,17.101,0,25.652c0,8.673,0,17.346,0,26.019c0,8.088,0,16.176,0,24.264
						c0,6.835,0,13.671,0,20.506c0,4.915,0,9.83,0,14.745c0,2.318-0.109,4.665,0,6.981c0.005,0.099,0,0.199,0,0.298
						c0,0.965,1.5,0.967,1.5,0c0-1.598,0-3.195,0-4.793c0-4.348,0-8.696,0-13.044c0-6.43,0-12.861,0-19.291
						c0-7.845,0-15.69,0-23.536c0-8.551,0-17.102,0-25.652c0-8.673,0-17.346,0-26.019c0-8.088,0-16.176,0-24.264
						c0-6.835,0-13.671,0-20.506c0-4.915,0-9.83,0-14.745c0-2.318,0.109-4.665,0-6.981c-0.005-0.099,0-0.199,0-0.298
						C116.275,59.612,114.775,59.611,114.775,60.577L114.775,60.577z"/>
				</g>
			</g>
			<g>
				<g>
					<path style="fill:#E0E0E0;" d="M173.376,60.577c0,1.598,0,3.195,0,4.793c0,4.348,0,8.696,0,13.044c0,6.43,0,12.861,0,19.291
						c0,7.845,0,15.69,0,23.536c0,8.551,0,17.101,0,25.652c0,8.673,0,17.346,0,26.019c0,8.088,0,16.176,0,24.264
						c0,6.835,0,13.671,0,20.506c0,4.915,0,9.83,0,14.745c0,2.318-0.109,4.665,0,6.981c0.005,0.099,0,0.199,0,0.298
						c0,0.965,1.5,0.967,1.5,0c0-1.598,0-3.195,0-4.793c0-4.348,0-8.696,0-13.044c0-6.43,0-12.861,0-19.291
						c0-7.845,0-15.69,0-23.536c0-8.551,0-17.102,0-25.652c0-8.673,0-17.346,0-26.019c0-8.088,0-16.176,0-24.264
						c0-6.835,0-13.671,0-20.506c0-4.915,0-9.83,0-14.745c0-2.318,0.109-4.665,0-6.981c-0.005-0.099,0-0.199,0-0.298
						C174.876,59.612,173.376,59.611,173.376,60.577L173.376,60.577z"/>
				</g>
			</g>
			<g>
				<g>
					<path style="fill:#E0E0E0;" d="M227.02,63.018c0,1.598,0,3.195,0,4.793c0,4.348,0,8.696,0,13.044c0,6.43,0,12.861,0,19.291
						c0,7.845,0,15.69,0,23.536c0,8.551,0,17.102,0,25.652c0,8.673,0,17.346,0,26.019c0,8.088,0,16.176,0,24.264
						c0,6.835,0,13.671,0,20.506c0,4.915,0,9.83,0,14.745c0,2.318-0.109,4.665,0,6.981c0.005,0.099,0,0.199,0,0.298
						c0,0.965,1.5,0.967,1.5,0c0-1.598,0-3.195,0-4.793c0-4.348,0-8.696,0-13.044c0-6.43,0-12.861,0-19.291
						c0-7.845,0-15.69,0-23.536c0-8.551,0-17.102,0-25.652c0-8.673,0-17.346,0-26.019c0-8.088,0-16.176,0-24.264
						c0-6.835,0-13.671,0-20.506c0-4.915,0-9.83,0-14.745c0-2.318,0.109-4.665,0-6.981c-0.005-0.099,0-0.199,0-0.298
						C228.52,62.053,227.02,62.051,227.02,63.018L227.02,63.018z"/>
				</g>
			</g>
			<g>
				<g>
					<path style="fill:#E0E0E0;" d="M281.973,59.022c0,1.598,0,3.195,0,4.793c0,4.348,0,8.696,0,13.044c0,6.43,0,12.861,0,19.291
						c0,7.845,0,15.69,0,23.536c0,8.551,0,17.102,0,25.652c0,8.673,0,17.346,0,26.019c0,8.088,0,16.176,0,24.264
						c0,6.835,0,13.671,0,20.506c0,4.915,0,9.83,0,14.745c0,2.318-0.109,4.665,0,6.981c0.005,0.099,0,0.199,0,0.298
						c0,0.965,1.5,0.967,1.5,0c0-1.598,0-3.195,0-4.793c0-4.348,0-8.696,0-13.044c0-6.43,0-12.861,0-19.291
						c0-7.845,0-15.69,0-23.536c0-8.551,0-17.102,0-25.652c0-8.673,0-17.346,0-26.019c0-8.088,0-16.176,0-24.264
						c0-6.835,0-13.671,0-20.506c0-4.915,0-9.83,0-14.745c0-2.318,0.109-4.665,0-6.981c-0.005-0.099,0-0.199,0-0.298
						C283.473,58.057,281.973,58.056,281.973,59.022L281.973,59.022z"/>
				</g>
			</g>
			<g>
				<g>
					<path style="fill:#E0E0E0;" d="M75.74,92.395c2.281,0,4.562,0,6.843,0c6.152,0,12.304,0,18.456,0c9.121,0,18.241,0,27.362,0
						c11.128,0,22.255,0,33.383,0c12.145,0,24.29,0,36.436,0c12.343,0,24.686,0,37.029,0c11.43,0,22.86,0,34.291,0
						c9.694,0,19.388,0,29.082,0c6.97,0,13.939,0,20.909,0c3.292,0,6.591,0.057,9.883,0c0.144-0.002,0.288,0,0.432,0
						c0.965,0,0.967-1.5,0-1.5c-2.281,0-4.562,0-6.843,0c-6.152,0-12.304,0-18.456,0c-9.121,0-18.241,0-27.362,0
						c-11.128,0-22.255,0-33.383,0c-12.145,0-24.29,0-36.436,0c-12.343,0-24.686,0-37.029,0c-11.43,0-22.861,0-34.291,0
						c-9.694,0-19.388,0-29.082,0c-6.969,0-13.939,0-20.909,0c-3.292,0-6.591-0.057-9.883,0c-0.144,0.003-0.288,0-0.432,0
						C74.775,90.895,74.773,92.395,75.74,92.395L75.74,92.395z"/>
				</g>
			</g>
		</g>
		<g>
			<rect x="191.927" y="122.335" style="fill:#EAEAEA;" width="28.055" height="28.055"/>
			<rect x="129.51" y="139.432" style="fill:#EAEAEA;" width="28.055" height="28.055"/>
			<rect x="75.155" y="98.99" style="fill:#EAEAEA;" width="28.055" height="28.055"/>
			<rect x="293.025" y="100.151" style="fill:#EAEAEA;" width="28.055" height="28.055"/>
			<rect x="71.176" y="184.477" style="fill:#E0E0E0;" width="28.055" height="28.055"/>
			<rect x="138.941" y="149.452" style="fill:#E0E0E0;" width="28.055" height="28.055"/>
			
				<rect x="138.941" y="98.259" style="fill:#E0E0E0;stroke:#E0E0E0;stroke-width:0.5;stroke-miterlimit:10;" width="28.055" height="28.055"/>
			<rect x="241.734" y="132.197" style="fill:#E0E0E0;" width="28.055" height="28.055"/>
			<rect x="301.789" y="169.169" style="fill:#E0E0E0;" width="28.055" height="28.055"/>
			<rect x="95.462" y="106.269" style="fill:#F5F5F5;" width="28.055" height="28.055"/>
			<rect x="184.338" y="144.042" style="fill:#F5F5F5;" width="28.055" height="28.055"/>
			<rect x="291.548" y="185.31" style="fill:#F5F5F5;" width="28.055" height="28.055"/>
		</g>
		<g>
			
				<text transform="matrix(1 0 0 1 84.2487 79.1899)" style="fill:#E0E0E0; font-family:'NexaRustHandmade-Extended'; font-size:15px;">Mo</text>
			
				<text transform="matrix(1 0 0 1 136.0495 79.19)" style="fill:#E0E0E0; font-family:'NexaRustHandmade-Extended'; font-size:15px;">Tu</text>
			
				<text transform="matrix(1 0 0 1 190.5654 79.1897)" style="fill:#E0E0E0; font-family:'NexaRustHandmade-Extended'; font-size:15px;">We</text>
			
				<text transform="matrix(1 0 0 1 239.61 79.1898)" style="fill:#E0E0E0; font-family:'NexaRustHandmade-Extended'; font-size:15px;">Th</text>
			
				<text transform="matrix(1 0 0 1 293.4283 79.1897)" style="fill:#E0E0E0; font-family:'NexaRustHandmade-Extended'; font-size:15px;">Fr</text>
		</g>
	</g>
</g>
<g id="Background_Simple" style="display:none;">
	<path style="display:inline;fill:#F5F5F5;stroke:#FAFAFA;stroke-miterlimit:10;" d="M426.518,93.607
		C409.034,69.079,364.329,34.384,302.048,40.9c-34.483,3.607-60.922,25.076-73.157,57.517c-7.195,19.079-8.038,25.253-21.692,40.397
		c-17.77,19.709-22.217,28.238-48.742,27.421c-26.525-0.817-59.595-20.383-87.259-4.322c-28.655,16.636-34.827,50.271-34.843,66.89
		c-0.053,55.272,29.105,102.483,68.535,122.01c39.43,19.527,113.837,32.881,157.824,31.78
		c65.379-1.637,132.967-31.933,167.524-82.976C464.796,248.575,462.298,143.8,426.518,93.607z"/>
	<path style="display:inline;fill:#F5F5F5;stroke:#FAFAFA;stroke-miterlimit:10;" d="M156.063,62.131
		c-10.027-4.364-26.12-2.181-36.037,3.446l0,0c-9.558,3.876-17.195,12.196-19.971,21.755c-2.776,9.559-0.623,20.125,5.63,27.632
		c9.604,11.529,27.292,14.625,42.681,10.997c9.834-2.318,19.582-7.448,24.832-15.871c5.147-8.257,5.237-18.543,2.526-27.505
		C172.639,72.382,166.09,66.495,156.063,62.131z"/>
</g>
<g id="Plant">
	<g>
		<g>
			<g>
				<g>
					<path style="fill:#D880A6;" d="M107.055,313.69c0,0-17.493-14.329-32.012-61.962c-14.519-47.633,16.386-53.553,27.394-48.389
						c16.884,7.921,15.755,42.092,14.21,71.73C115.103,304.708,109.51,313.69,107.055,313.69z"/>
					<path style="opacity:0.4;" d="M107.055,313.69c0,0-17.493-14.329-32.012-61.962c-14.519-47.633,16.386-53.553,27.394-48.389
						c16.884,7.921,15.755,42.092,14.21,71.73C115.103,304.708,109.51,313.69,107.055,313.69z"/>
				</g>
				<g>
					<path style="fill:none;stroke:#263238;stroke-miterlimit:10;" d="M99.419,230.534c0,0,5.472,24.296,7.721,88.56
						c2.261,64.607,0.697,103.628,0.697,103.628"/>
					<line style="fill:none;stroke:#263238;stroke-miterlimit:10;" x1="85.204" y1="240.283" x2="103.18" y2="257.489"/>
					<line style="fill:none;stroke:#263238;stroke-miterlimit:10;" x1="86.474" y1="261.731" x2="104.451" y2="278.937"/>
				</g>
			</g>
			<g>
				<g>
					<path style="fill:#D880A6;" d="M118.999,336.853c0,0-5.606-17.063,4.588-57.487c10.193-40.424,33.074-33.229,38.202-25.323
						c7.866,12.127-7.075,36.814-20.408,58.015S120.622,337.771,118.999,336.853z"/>
					<path style="opacity:0.4;" d="M118.999,336.853c0,0-5.606-17.063,4.588-57.487c10.193-40.424,33.074-33.229,38.202-25.323
						c7.866,12.127-7.075,36.814-20.408,58.015S120.622,337.771,118.999,336.853z"/>
				</g>
				<path style="fill:none;stroke:#263238;stroke-miterlimit:10;" d="M109.752,410.891c0,0,2.234-54.952,13.766-88.183
					s21.957-53.417,21.957-53.417"/>
			</g>
			<g>
				<g>
					<path style="fill:#D880A6;" d="M123.576,391.441c0,0-1.495-12.1,10.597-37.685c12.092-25.585,26.387-17.792,28.765-11.854
						c3.648,9.109-9.542,23.59-21.203,35.962C130.074,390.235,124.536,392.264,123.576,391.441z"/>
					<path style="opacity:0.2;" d="M123.576,391.441c0,0-1.495-12.1,10.597-37.685c12.092-25.585,26.387-17.792,28.765-11.854
						c3.648,9.109-9.542,23.59-21.203,35.962C130.074,390.235,124.536,392.264,123.576,391.441z"/>
				</g>
				<path style="fill:none;stroke:#263238;stroke-miterlimit:10;" d="M109.752,419.348c0,0,28.881-56.568,43.216-73.509"/>
			</g>
			<g>
				<g>
					<path style="fill:#D880A6;" d="M93.776,354.207c0,0-12.126-6.626-27.68-34.677c-15.554-28.052,1.074-36.055,8.113-34.317
						c10.797,2.666,15.404,24.385,19.079,43.3C96.963,347.428,95.169,353.868,93.776,354.207z"/>
					<path style="opacity:0.3;" d="M93.776,354.207c0,0-12.126-6.626-27.68-34.677c-15.554-28.052,1.074-36.055,8.113-34.317
						c10.797,2.666,15.404,24.385,19.079,43.3C96.963,347.428,95.169,353.868,93.776,354.207z"/>
				</g>
				<path style="fill:none;stroke:#263238;stroke-miterlimit:10;" d="M73.475,302.509c0,0,24.011,37.682,36.277,121.302"/>
				<line style="fill:none;stroke:#263238;stroke-miterlimit:10;" x1="68.914" y1="313.69" x2="81.597" y2="318.568"/>
			</g>
			<g>
				<g>
					<path style="fill:#D880A6;" d="M93.912,394.48c0,0-9.399-1.101-26.465-14.932c-17.065-13.831-8.556-23.174-3.64-23.874
						c7.54-1.073,16.031,11.54,23.211,22.612C94.199,389.358,94.71,393.908,93.912,394.48z"/>
					<path style="opacity:0.4;" d="M93.912,394.48c0,0-9.399-1.101-26.465-14.932c-17.065-13.831-8.556-23.174-3.64-23.874
						c7.54-1.073,16.031,11.54,23.211,22.612C94.199,389.358,94.71,393.908,93.912,394.48z"/>
				</g>
				<path style="fill:none;stroke:#263238;stroke-miterlimit:10;" d="M73.475,372.142c0,0,19.176,18.761,31.416,37.441"/>
			</g>
		</g>
		<g>
			<rect x="80.208" y="406.041" style="fill:#4D5A64;" width="49.366" height="49.366"/>
			<g>
				<path style="fill:#E0E0E0;" d="M80.208,423.553c4.579-5.11,12.553-12.93,21.901-17.511h-2.163
					c-8.256,4.469-15.305,11.204-19.738,16.036V423.553z"/>
				<path style="fill:#E0E0E0;" d="M117.219,406.041h-1.141c-1.482,2.374-4.429,5.615-7.149,8.603
					c-4.909,5.391-9.545,10.483-8.981,13.329c0.143,0.72,0.59,1.263,1.332,1.612c3.762,1.777,9.177-2.135,14.908-6.278
					c4.833-3.494,9.822-7.096,13.386-6.757v-1.004c-3.936-0.293-9.032,3.379-13.972,6.951c-5.243,3.79-10.662,7.708-13.895,6.185
					c-0.451-0.213-0.698-0.499-0.777-0.902c-0.466-2.352,4.425-7.723,8.74-12.462C112.905,411.763,115.849,408.524,117.219,406.041z
					"/>
				<path style="fill:#E0E0E0;" d="M129.574,448.612v-1.171c-3.113,1.866-6.841,4.392-10.896,7.142
					c-0.402,0.273-0.808,0.548-1.216,0.825h1.783C122.946,452.896,126.532,450.465,129.574,448.612z"/>
				<path style="fill:#E0E0E0;" d="M112.307,439.74c6.897-4.688,13.207-8.98,17.267-12.726v-1.381
					c-3.992,3.87-10.772,8.483-17.829,13.279c-8.157,5.543-16.469,11.193-21.815,16.494h1.459
					C96.768,450.302,104.813,444.832,112.307,439.74z"/>
			</g>
		</g>
	</g>
</g>
<g id="Chair">
	<g>
		<g>
			<g>
				<rect x="349.295" y="335.957" style="fill:#E0E0E0;" width="8.851" height="72.371"/>
				<path style="fill:#263238;" d="M356.248,431.434h-5.055c-2.369,0-4.29-1.921-4.29-4.29v-53.231c0-2.369,1.921-4.29,4.29-4.29
					h5.055c2.37,0,4.29,1.921,4.29,4.29v53.231C360.538,429.513,358.617,431.434,356.248,431.434z"/>
			</g>
			<polygon style="fill:#263238;" points="388.646,426.258 386.474,426.258 320.966,426.258 315.816,426.258 315.816,433.697 
				315.816,442.067 320.966,442.067 320.966,433.697 386.474,433.697 386.474,442.067 391.625,442.067 391.625,433.697 
				391.625,426.258 			"/>
			<g>
				<g>
					<circle style="fill:#4D5A64;" cx="388.876" cy="446.342" r="9.949"/>
					<path style="fill:#263238;" d="M392.689,446.342c0,2.105-1.707,3.812-3.812,3.812s-3.812-1.707-3.812-3.812
						s1.707-3.812,3.812-3.812S392.689,444.236,392.689,446.342z"/>
				</g>
				<g>
					<circle style="fill:#4D5A64;" cx="318.288" cy="446.342" r="9.95"/>
					<path style="fill:#263238;" d="M322.101,446.342c0,2.105-1.707,3.812-3.812,3.812s-3.812-1.707-3.812-3.812
						s1.707-3.812,3.812-3.812S322.101,444.236,322.101,446.342z"/>
				</g>
			</g>
		</g>
		<path style="fill:#4D5A64;" d="M401.198,334.708c0,0,18.52-11.872,23.268-38.464c4.749-26.592-5.223-65.531-17.095-84.051
			c-11.872-18.52-43.687-17.095-47.011,5.698c-3.324,22.793-11.871,78.352-36.564,84.051c-24.693,5.698-40.363,11.397-37.989,30.391
			S381.33,361.042,401.198,334.708z"/>
	</g>
</g>
<g id="Character">
	<g>
		<g>
			<g>
				<path style="fill:#FFFFFF;stroke:#263238;stroke-width:0.75;stroke-miterlimit:10;" d="M248.833,269.28
					c0,0-8.919-1.201-14.628-0.886c-5.709,0.315-24.182,8.361-24.301,11.108c-0.119,2.747,39.197,4.437,39.197,4.437v-1.78
					L248.833,269.28z"/>
				
					<line style="fill:none;stroke:#263238;stroke-width:0.75;stroke-miterlimit:10;" x1="213.914" y1="281.078" x2="233.461" y2="273.767"/>
			</g>
			<polygon style="fill:#FFFFFF;stroke:#263238;stroke-width:0.75;stroke-miterlimit:10;" points="252.542,261.478 243.724,265.532 
				244.049,284.428 258.71,285.405 			"/>
			<g>
				<path style="fill:#D880A6;" d="M341.408,194.89c0,0-14.38-4.775-33.014,26.316c-16.724,27.904-17.158,27.904-17.158,27.904
					s-37.683,6.978-39.312,13.481c-1.629,6.503,1.412,23.348,1.412,23.348l60.923-3.082L341.408,194.89z"/>
				<path style="opacity:0.3;fill:#FFFFFF;" d="M341.408,194.89c0,0-14.38-4.775-33.014,26.316
					c-16.724,27.904-17.158,27.904-17.158,27.904s-37.683,6.978-39.312,13.481c-1.629,6.503,1.412,23.348,1.412,23.348l60.923-3.082
					L341.408,194.89z"/>
			</g>
			<g>
				<path style="fill:none;stroke:#FFFFFF;stroke-width:0.5;stroke-miterlimit:10;" d="M282.138,262.688
					c0,2.871-2.327,5.198-5.198,5.198s-5.199-2.327-5.199-5.198s2.328-5.198,5.199-5.198S282.138,259.816,282.138,262.688z"/>
				<path style="fill:none;stroke:#FFFFFF;stroke-width:0.5;stroke-miterlimit:10;" d="M297.56,277.98
					c0,2.871-2.327,5.199-5.198,5.199s-5.198-2.328-5.198-5.199c0-2.871,2.327-5.198,5.198-5.198S297.56,275.109,297.56,277.98z"/>
				<path style="fill:none;stroke:#FFFFFF;stroke-width:0.5;stroke-miterlimit:10;" d="M309.193,258.789
					c0,2.871-2.327,5.199-5.198,5.199c-2.871,0-5.198-2.328-5.198-5.199s2.327-5.198,5.198-5.198
					C306.866,253.591,309.193,255.918,309.193,258.789z"/>
				<circle style="fill:none;stroke:#FFFFFF;stroke-width:0.5;stroke-miterlimit:10;" cx="255.762" cy="275.124" r="5.198"/>
				<circle style="fill:none;stroke:#FFFFFF;stroke-width:0.5;stroke-miterlimit:10;" cx="313.255" cy="227.462" r="5.198"/>
				<path style="fill:#FFFFFF;" d="M301.374,241.258c0,2.729-2.22,4.948-4.948,4.948c-1.009,0-1.947-0.307-2.73-0.827
					c-0.092,0.147-0.182,0.289-0.267,0.424c0.861,0.57,1.89,0.903,2.997,0.903c3.004,0,5.448-2.444,5.448-5.448
					c0-2.015-1.102-3.773-2.732-4.716c-0.09,0.147-0.181,0.298-0.269,0.441C300.359,237.838,301.374,239.423,301.374,241.258z"/>
				<path style="fill:#FFFFFF;" d="M323.046,207.78c0-1.498-0.608-2.857-1.59-3.843c-0.116,0.114-0.234,0.24-0.351,0.357
					c0.89,0.895,1.441,2.127,1.441,3.486c0,2.729-2.22,4.948-4.948,4.948c-1.085,0-2.081-0.361-2.897-0.956
					c-0.1,0.133-0.201,0.272-0.302,0.408c0.9,0.656,2.003,1.048,3.199,1.048C320.601,213.228,323.046,210.785,323.046,207.78z"/>
			</g>
		</g>
		<g>
			<g>
				<path style="fill:#D880A6;" d="M381.378,288.066c0.449-4.863,0.693-9.875,0.693-15.006c0-44.277-17.478-80.17-39.038-80.17
					c-21.56,0-39.038,35.893-39.038,80.17c0,5.132,0.244,10.143,0.693,15.006H381.378z"/>
				<path style="opacity:0.3;fill:#FFFFFF;" d="M381.378,288.066c0.449-4.863,0.693-9.875,0.693-15.006
					c0-44.277-17.478-80.17-39.038-80.17c-21.56,0-39.038,35.893-39.038,80.17c0,5.132,0.244,10.143,0.693,15.006H381.378z"/>
			</g>
			<g>
				<path style="fill:none;stroke:#FFFFFF;stroke-width:0.5;stroke-miterlimit:10;" d="M333.442,257.489
					c0,2.871-2.327,5.198-5.198,5.198s-5.198-2.327-5.198-5.198s2.327-5.198,5.198-5.198S333.442,254.618,333.442,257.489z"/>
				<circle style="fill:none;stroke:#FFFFFF;stroke-width:0.5;stroke-miterlimit:10;" cx="310.774" cy="276.483" r="5.198"/>
				<path style="fill:none;stroke:#FFFFFF;stroke-width:0.5;stroke-miterlimit:10;" d="M338.854,276.483
					c0,2.871-2.327,5.198-5.199,5.198c-2.871,0-5.198-2.327-5.198-5.198s2.327-5.198,5.198-5.198
					C336.527,271.285,338.854,273.612,338.854,276.483z"/>
				<path style="fill:none;stroke:#FFFFFF;stroke-width:0.5;stroke-miterlimit:10;" d="M348.542,242.824
					c0,2.871-2.327,5.199-5.198,5.199s-5.198-2.327-5.198-5.199c0-2.871,2.327-5.198,5.198-5.198S348.542,239.953,348.542,242.824z"
					/>
				<path style="fill:none;stroke:#FFFFFF;stroke-width:0.5;stroke-miterlimit:10;" d="M324.795,233.957
					c0,2.871-2.327,5.199-5.198,5.199s-5.198-2.327-5.198-5.199s2.327-5.198,5.198-5.198S324.795,231.086,324.795,233.957z"/>
				<circle style="fill:none;stroke:#FFFFFF;stroke-width:0.5;stroke-miterlimit:10;" cx="336.169" cy="222.264" r="5.198"/>
				<circle style="fill:none;stroke:#FFFFFF;stroke-width:0.5;stroke-miterlimit:10;" cx="358.9" cy="254.83" r="5.198"/>
				<circle style="fill:none;stroke:#FFFFFF;stroke-width:0.5;stroke-miterlimit:10;" cx="370.996" cy="279.746" r="5.198"/>
				<path style="fill:none;stroke:#FFFFFF;stroke-width:0.5;stroke-miterlimit:10;" d="M363.674,231.927
					c0,2.871-2.327,5.198-5.198,5.198s-5.198-2.327-5.198-5.198c0-2.871,2.327-5.198,5.198-5.198S363.674,229.056,363.674,231.927z"
					/>
				<path style="fill:#FFFFFF;" d="M326.726,209.386c3.004,0,5.448-2.444,5.448-5.448c0-2.427-1.595-4.486-3.791-5.189
					c-0.162,0.135-0.327,0.256-0.488,0.395c2.163,0.529,3.779,2.47,3.779,4.794c0,2.729-2.22,4.948-4.948,4.948
					c-2.189,0-4.028-1.437-4.68-3.41c-0.124,0.163-0.249,0.325-0.373,0.491C322.48,207.968,324.439,209.386,326.726,209.386z"/>
				<path style="fill:#FFFFFF;" d="M313.504,250.567c0-3.004-2.444-5.449-5.448-5.449c-0.583,0-1.144,0.094-1.671,0.265
					c-0.034,0.191-0.065,0.385-0.098,0.577c0.551-0.212,1.144-0.341,1.769-0.341c2.728,0,4.948,2.22,4.948,4.949
					s-2.22,4.948-4.948,4.948c-1.131,0-2.161-0.396-2.996-1.037c-0.023,0.197-0.044,0.394-0.067,0.592
					c0.873,0.596,1.928,0.945,3.062,0.945C311.06,256.015,313.504,253.572,313.504,250.567z"/>
			</g>
			<path style="fill:none;stroke:#263238;stroke-width:0.75;stroke-miterlimit:10;" d="M381.388,288.067
				c0.449-4.861,0.683-9.877,0.683-15.006c0-44.277-17.478-80.17-39.038-80.17c-21.56,0-39.038,35.893-39.038,80.17
				c0,4.477,0.179,8.867,0.523,13.143"/>
		</g>
		<g>
			<g>
				<path style="fill:#FFFFFF;stroke:#263238;stroke-width:0.75;stroke-miterlimit:10;" d="M328.457,271.136
					c0,0-8.891-1.387-14.606-1.191c-5.715,0.196-24.351,7.854-24.527,10.598c-0.176,2.744,26.492,4.549,26.492,4.549l12.641-1.914
					V271.136z"/>
				
					<line style="fill:none;stroke:#263238;stroke-width:0.75;stroke-miterlimit:10;" x1="298.289" y1="283.665" x2="315.816" y2="278.491"/>
				<polyline style="fill:none;stroke:#263238;stroke-width:0.75;stroke-miterlimit:10;" points="313.504,273.767 303.669,277.225 
					290.716,281.682 				"/>
			</g>
			<polygon style="fill:#FFFFFF;stroke:#263238;stroke-width:0.75;stroke-miterlimit:10;" points="337.35,263.239 325.229,266.754 
				325.636,283.665 341.367,283.939 			"/>
			<g>
				<path style="fill:#D880A6;" d="M355.307,221.061l17.268,32.53c0,0-31.168,1.135-35.512,7.887
					c-2.06,3.201-3.584,22.461-3.584,22.461s50.715,3.801,69.687-0.76c18.972-4.561,18.602-28.67-10.637-59.946
					c-29.24-31.276-48.516-30.343-48.516-30.343L355.307,221.061z"/>
				<path style="opacity:0.3;fill:#FFFFFF;" d="M355.307,221.061l17.268,32.53c0,0-31.168,1.135-35.512,7.887
					c-2.06,3.201-3.584,22.461-3.584,22.461s50.715,3.801,69.687-0.76c18.972-4.561,18.602-28.67-10.637-59.946
					c-29.24-31.276-48.516-30.343-48.516-30.343L355.307,221.061z"/>
			</g>
			<g>
				<circle style="fill:none;stroke:#FFFFFF;stroke-width:0.5;stroke-miterlimit:10;" cx="372.575" cy="237.376" r="5.198"/>
				<circle style="fill:none;stroke:#FFFFFF;stroke-width:0.5;stroke-miterlimit:10;" cx="388.425" cy="257.489" r="5.198"/>
				<circle style="fill:none;stroke:#FFFFFF;stroke-width:0.5;stroke-miterlimit:10;" cx="369.623" cy="271.724" r="5.198"/>
				<path style="fill:none;stroke:#FFFFFF;stroke-width:0.5;stroke-miterlimit:10;" d="M358.9,210.242
					c0,2.871-2.327,5.198-5.198,5.198c-2.871,0-5.199-2.327-5.199-5.198s2.328-5.198,5.199-5.198
					C356.573,205.044,358.9,207.371,358.9,210.242z"/>
				<path style="fill:#FFFFFF;" d="M403.421,237.376c0,2.729-2.22,4.948-4.948,4.948c-2.729,0-4.948-2.22-4.948-4.948
					s2.22-4.949,4.948-4.949c0.943,0,1.816,0.279,2.567,0.739c-0.235-0.301-0.464-0.601-0.704-0.904
					c-0.582-0.213-1.208-0.335-1.862-0.335c-3.004,0-5.448,2.444-5.448,5.449c0,3.004,2.444,5.448,5.448,5.448
					s5.448-2.444,5.448-5.448c0-0.136-0.01-0.269-0.02-0.402c-0.222-0.309-0.458-0.623-0.686-0.934
					C403.336,236.467,403.421,236.91,403.421,237.376z"/>
				<path style="fill:#FFFFFF;" d="M412.63,268.936c-2.728,0-4.948-2.22-4.948-4.949c0-2.729,2.22-4.948,4.948-4.948
					c0.978,0,1.885,0.294,2.653,0.785c-0.053-0.225-0.094-0.444-0.152-0.672c-0.75-0.389-1.599-0.613-2.501-0.613
					c-3.004,0-5.448,2.444-5.448,5.448c0,3.004,2.444,5.449,5.448,5.449c1.319,0,2.529-0.471,3.473-1.254
					c0.015-0.235,0.028-0.471,0.036-0.711C415.242,268.375,414.001,268.936,412.63,268.936z"/>
				<path style="fill:#FFFFFF;" d="M397.073,274.874c-3.004,0-5.448,2.444-5.448,5.448c0,1.746,0.829,3.298,2.11,4.296
					c0.265-0.025,0.527-0.051,0.788-0.078c-1.431-0.868-2.398-2.426-2.398-4.218c0-2.729,2.22-4.948,4.948-4.948
					c2.729,0,4.948,2.22,4.948,4.948c0,1.307-0.519,2.489-1.35,3.375c0.264-0.048,0.525-0.096,0.78-0.147
					c0.669-0.905,1.069-2.019,1.069-3.228C402.521,277.318,400.077,274.874,397.073,274.874z"/>
				<path style="fill:#FFFFFF;" d="M355.407,285.092c0.081-0.372,0.126-0.758,0.126-1.154c0-3.004-2.444-5.448-5.448-5.448
					s-5.448,2.444-5.448,5.448c0,0.232,0.019,0.46,0.048,0.684c0.172,0.009,0.349,0.018,0.524,0.027
					c-0.034-0.234-0.072-0.468-0.072-0.711c0-2.729,2.22-4.948,4.948-4.948c2.728,0,4.948,2.22,4.948,4.948
					c0,0.392-0.057,0.769-0.144,1.135C355.061,285.08,355.234,285.086,355.407,285.092z"/>
				<path style="fill:#FFFFFF;" d="M377.774,219.071c2.875,0,5.232-2.24,5.429-5.066c-0.162-0.148-0.326-0.299-0.487-0.445
					c0,0.022,0.006,0.042,0.006,0.063c0,2.729-2.22,4.948-4.948,4.948c-2.729,0-4.949-2.22-4.949-4.948
					c0-2.497,1.865-4.546,4.272-4.88c-0.183-0.147-0.359-0.282-0.541-0.426c-2.42,0.555-4.231,2.721-4.231,5.306
					C372.325,216.627,374.769,219.071,377.774,219.071z"/>
				<path style="fill:#FFFFFF;" d="M353.027,262.937c3.004,0,5.448-2.444,5.448-5.448c0-0.966-0.255-1.872-0.698-2.659
					c-0.183,0.023-0.368,0.048-0.552,0.072c0.467,0.755,0.75,1.636,0.75,2.587c0,2.728-2.22,4.948-4.948,4.948
					c-2.729,0-4.948-2.22-4.948-4.948c0-0.362,0.044-0.712,0.118-1.052c-0.178,0.04-0.356,0.08-0.532,0.12
					c-0.053,0.303-0.086,0.613-0.086,0.931C347.579,260.493,350.023,262.937,353.027,262.937z"/>
				<path style="fill:#FFFFFF;" d="M340.746,270.514c0-2.804-2.13-5.119-4.857-5.415c-0.037,0.169-0.074,0.339-0.11,0.515
					c2.501,0.246,4.467,2.336,4.467,4.9c0,2.729-2.22,4.948-4.949,4.948c-0.332,0-0.656-0.035-0.971-0.098
					c-0.019,0.166-0.039,0.333-0.057,0.498c0.333,0.064,0.676,0.1,1.028,0.1C338.301,275.963,340.746,273.519,340.746,270.514z"/>
			</g>
			<path style="fill:none;stroke:#263238;stroke-width:0.75;stroke-miterlimit:10;" d="M333.479,283.939
				c0,0,1.524-19.259,3.584-22.461c4.345-6.752,35.512-7.887,35.512-7.887l-17.268-32.53"/>
		</g>
		<g>
			<g>
				<path style="fill:#FFFFFF;stroke:#263238;stroke-width:0.75;stroke-miterlimit:10;" d="M352.015,194.528
					c0,3.221-4.749,5.833-10.608,5.833s-10.607-2.611-10.607-5.833c0-3.221,4.749-5.832,10.607-5.832
					S352.015,191.307,352.015,194.528z"/>
			</g>
			<g>
				<g>
					<path style="fill:#FFFFFF;stroke:#263238;stroke-width:0.75;stroke-miterlimit:10;" d="M329.223,145.055h8.766
						c5.828,0,10.596,5.429,10.596,12.064v13.588c0,0.383-0.02,0.761-0.051,1.135c0.095,0.401,0.15,0.816,0.15,1.244v8.272v0.461
						v8.272c0,3.002-2.456,5.457-5.457,5.457h-3.478c-3.002,0-5.457-2.456-5.457-5.457v-7.32h-5.069
						c-5.828,0-10.596-5.429-10.596-12.064v-13.588C318.627,150.484,323.396,145.055,329.223,145.055z"/>
					<path style="fill:#263238;" d="M346.289,166.311l-1.618-10.643c0,0-29.447,3.691-38.993-10.613
						c-9.546-14.304,0.486-19.967,5.339-19.158c4.854,0.809,10.529,7.766,10.529,7.766s-4.871-7.134,0-9.249
						c4.239-1.84,10.818,2.793,13.314,9.269c0,0,18.206-0.374,24.768,11.371c6.562,11.745,1.244,20.078-10.757,32.213l-1.094-6.787
						L346.289,166.311z"/>
					<g>
						<g>
							<g>
								<path style="fill:#263238;" d="M336.169,161.558c0,1.091-0.885,1.976-1.976,1.976s-1.976-0.885-1.976-1.976
									c0-1.091,0.885-1.976,1.976-1.976S336.169,160.467,336.169,161.558z"/>
								<path style="fill:#263238;" d="M323.233,161.269c0,0.932-0.755,1.687-1.687,1.687c-0.932,0-1.687-0.755-1.687-1.687
									s0.755-1.686,1.687-1.686C322.477,159.582,323.233,160.337,323.233,161.269z"/>
							</g>
							<g>
								<path style="fill:#F9F8F8;" d="M325.119,169.354c0,0,0.993,2.893,3.092,3.092c2.099,0.199,3.745-2.128,3.858-3.943
									L325.119,169.354z"/>
								<g>
									<path style="fill:#263238;" d="M324.685,169.473c0.363,1.049,1.015,2.092,1.9,2.771c1.557,1.193,3.569,0.601,4.737-0.837
										c0.673-0.829,1.118-1.834,1.197-2.904c0.017-0.222-0.221-0.478-0.45-0.45c-2.029,0.249-4.057,0.497-6.086,0.746
										c-0.288,0.035-0.576,0.071-0.864,0.106c-0.243,0.03-0.447,0.186-0.45,0.45c-0.002,0.22,0.209,0.479,0.45,0.45
										c2.029-0.249,4.057-0.497,6.086-0.745c0.288-0.035,0.576-0.071,0.864-0.106c-0.15-0.15-0.3-0.3-0.45-0.45
										c-0.107,1.431-1.151,3.053-2.592,3.432c-1.373,0.361-2.418-0.692-3.042-1.787c-0.13-0.228-0.247-0.463-0.351-0.703
										c-0.034-0.079,0.021,0.054-0.016-0.038c-0.011-0.029-0.022-0.057-0.034-0.086c-0.011-0.028-0.022-0.057-0.031-0.085
										C325.365,168.69,324.495,168.924,324.685,169.473z"/>
								</g>
							</g>
							<g>
								<path style="fill:#D880A6;" d="M342.744,168.542c-0.022,2.54-2.099,4.581-4.639,4.559c-2.54-0.022-4.581-2.099-4.559-4.639
									c0.022-2.54,2.099-4.581,4.638-4.559C340.725,163.926,342.766,166.002,342.744,168.542z"/>
								<path style="fill:#D880A6;" d="M319.885,165.245c-0.28-0.002-0.551,0.032-0.813,0.092l-0.041,4.77
									c-0.006,0.713,0.014,1.402,0.153,2.075c0.192,0.034,0.439,0.063,0.64,0.065c1.933,0.017,3.514-1.537,3.531-3.47
									C323.372,166.842,321.818,165.262,319.885,165.245z"/>
							</g>
							<g>
								
									<ellipse style="fill:none;stroke:#4D5A64;stroke-width:0.75;stroke-miterlimit:10;" cx="336.169" cy="160.828" rx="6.071" ry="7.251"/>
								<path style="fill:none;stroke:#4D5A64;stroke-width:0.75;stroke-miterlimit:10;" d="M326.386,160.135
									c0,3.755-2.421,6.798-5.407,6.798s-5.407-3.044-5.407-6.798c0-3.755,2.421-6.798,5.407-6.798
									S326.386,156.381,326.386,160.135z"/>
								
									<line style="fill:none;stroke:#4D5A64;stroke-width:0.75;stroke-miterlimit:10;" x1="342.24" y1="160.828" x2="350.085" y2="162.634"/>
							</g>
							<polygon style="fill:#D880A6;" points="327.928,159.591 328.332,166.32 325.119,164.362 							"/>
							<g>
								<path style="fill:#4D5A64;" d="M329.895,161.985c-2.136-1.169-3.979-0.09-4.036-0.045l0.05-0.77
									c0.076-0.065,1.712-1.542,4.452-0.04L329.895,161.985z"/>
							</g>
						</g>
					</g>
				</g>
				<g>
					<path style="fill:#FFFFFF;" d="M359.628,166.534c0,3.823-3.125,6.922-6.979,6.922c-3.854,0-6.979-3.099-6.979-6.922
						c0-3.823,3.124-6.922,6.979-6.922C356.503,159.612,359.628,162.711,359.628,166.534z"/>
					<g>
						<g>
							<path style="fill:#263238;" d="M349.287,167.448c-0.01-0.149-0.004-0.3,0.005-0.45c0.004-0.07,0.009-0.139,0.016-0.209
								c0.004-0.038,0.008-0.077,0.012-0.115c0.016-0.145-0.01,0.049,0.008-0.062c0.031-0.193,0.067-0.383,0.117-0.572
								c0.026-0.098,0.055-0.196,0.087-0.292c0.018-0.055,0.038-0.109,0.058-0.163c0.011-0.029,0.078-0.187,0.037-0.095
								c0.099-0.225,0.217-0.442,0.358-0.644c0.017-0.024,0.114-0.151,0.06-0.084c0.037-0.046,0.075-0.091,0.114-0.135
								c0.089-0.099,0.183-0.193,0.284-0.28c0.021-0.018,0.15-0.12,0.092-0.076c0.051-0.038,0.104-0.075,0.158-0.11
								c0.123-0.08,0.253-0.151,0.386-0.214c0.654-0.311,1.531-0.346,2.318-0.264c0.222,0.023,0.413-0.206,0.413-0.413
								c0-0.243-0.19-0.39-0.413-0.413c-1.421-0.148-2.964,0.137-3.913,1.295c-0.623,0.761-0.92,1.714-1.005,2.683
								c-0.018,0.203-0.029,0.41-0.016,0.614C348.495,167.976,349.321,167.979,349.287,167.448L349.287,167.448z"/>
						</g>
					</g>
					<path style="fill:none;stroke:#263238;stroke-width:0.75;stroke-miterlimit:10;" d="M345.67,166.534
						c0-1.942,0.807-3.698,2.106-4.955"/>
					<path style="fill:none;stroke:#263238;stroke-width:0.75;stroke-miterlimit:10;" d="M347.776,161.579
						c1.258-1.217,2.977-1.967,4.873-1.967c3.854,0,6.979,3.099,6.979,6.922c0,3.823-3.125,6.922-6.979,6.922
						c-1.19,0-2.31-0.295-3.29-0.816c-0.364-0.193-1.292-0.812-1.583-1.099"/>
				</g>
			</g>
			<circle style="fill:#D880A6;" cx="361.166" cy="136.34" r="5.543"/>
			
				<ellipse transform="matrix(0.7933 -0.6089 0.6089 0.7933 6.3576 257.2973)" style="fill:#263238;" cx="382.071" cy="119.287" rx="18.964" ry="14.578"/>
		</g>
		<g>
			<g>
				<g>
					<g>
						<polygon style="fill:#FFFFFF;stroke:#263238;stroke-miterlimit:10;" points="221.692,386.674 211.774,425.4 225.93,437.842 
							237.548,397.828 						"/>
						<g>
							<line style="fill:none;stroke:#263238;stroke-miterlimit:10;" x1="224.141" y1="388.397" x2="214.502" y2="428.258"/>
							<line style="fill:none;stroke:#263238;stroke-miterlimit:10;" x1="227.757" y1="390.96" x2="218.118" y2="430.821"/>
							<line style="fill:none;stroke:#263238;stroke-miterlimit:10;" x1="231.352" y1="392.641" x2="220.906" y2="432.891"/>
							<line style="fill:none;stroke:#263238;stroke-miterlimit:10;" x1="234.391" y1="395.127" x2="223.874" y2="435.697"/>
						</g>
					</g>
					<g>
						<polygon style="fill:#FFFFFF;stroke:#263238;stroke-miterlimit:10;" points="168.737,456.003 234.025,456.003 
							235.754,422.723 202.246,422.723 196.464,437.289 						"/>
						<g>
							<g>
								<g>
									<g>
										<path style="fill:#263238;" d="M184.859,442.017c1.024,2.246,2.049,4.493,3.074,6.739c0.147,0.321,0.293,0.643,0.44,0.964
											c0.2,0.439,0.847,0.058,0.648-0.379c-1.025-2.246-2.049-4.493-3.073-6.739c-0.147-0.322-0.293-0.643-0.44-0.964
											C185.306,441.199,184.66,441.58,184.859,442.017L184.859,442.017z"/>
									</g>
								</g>
								<g>
									<g>
										<path style="fill:#263238;" d="M190.027,439.154c1.024,2.246,2.049,4.493,3.074,6.739c0.147,0.321,0.293,0.643,0.44,0.964
											c0.2,0.439,0.847,0.058,0.648-0.379c-1.025-2.246-2.049-4.493-3.073-6.739c-0.147-0.322-0.293-0.643-0.44-0.964
											C190.474,438.337,189.828,438.717,190.027,439.154L190.027,439.154z"/>
									</g>
								</g>
							</g>
							<g>
								<g>
									<g>
										<path style="fill:#263238;" d="M194.361,437.42c-1.801-0.719-3.563-1.564-5.274-2.475
											c-1.362-0.725-2.702-1.508-3.95-2.419c-1.014-0.74-2.133-1.626-2.702-2.777c-0.48-0.971-0.138-1.896,0.645-2.602
											c0.689-0.621,1.559-0.583,2.359-0.201c1.106,0.528,2.013,1.452,2.818,2.355c0.973,1.09,1.832,2.278,2.639,3.494
											c1.105,1.664,2.138,3.393,3.041,5.176c0.218,0.43,0.866,0.051,0.648-0.379c-0.847-1.671-1.811-3.293-2.835-4.861
											c-0.843-1.292-1.744-2.554-2.754-3.722c-0.867-1.003-1.852-2.019-3.04-2.64c-0.897-0.469-1.943-0.665-2.866-0.151
											c-0.928,0.517-1.726,1.67-1.647,2.757c0.088,1.207,1.001,2.229,1.848,3.01c1.187,1.096,2.565,1.985,3.957,2.795
											c2.21,1.286,4.539,2.415,6.914,3.363C194.61,438.322,194.805,437.597,194.361,437.42z"/>
									</g>
								</g>
								<g>
									<g>
										<path style="fill:#263238;" d="M190.563,423.911c1.087,4.149,2.175,8.298,3.262,12.447
											c0.156,0.593,0.311,1.187,0.467,1.78c0.122,0.466,0.846,0.269,0.723-0.199c-1.088-4.149-2.175-8.298-3.262-12.447
											c-0.156-0.593-0.311-1.187-0.467-1.78C191.164,423.245,190.44,423.443,190.563,423.911L190.563,423.911z"/>
									</g>
								</g>
							</g>
						</g>
						<path style="fill:#D880A6;stroke:#263238;stroke-width:0.75;stroke-miterlimit:10;" d="M234.025,456.003l0.758-14.586
							c-1.185-0.295-2.415-0.467-3.685-0.467c-8.243,0-15.029,6.576-15.985,15.053H234.025z"/>
					</g>
				</g>
				<g>
					<g>
						<path style="fill:#D880A6;" d="M210.103,398.943l35.829,3.258l35.818-71.674l27.244-34.534l-28.054-6.516
							c0,0-34.683,5.538-41.524,22.154C232.574,328.246,210.103,398.943,210.103,398.943z"/>
						<path style="opacity:0.6;" d="M210.103,398.943l35.829,3.258l35.818-71.674l27.244-34.534l-28.054-6.516
							c0,0-34.683,5.538-41.524,22.154C232.574,328.246,210.103,398.943,210.103,398.943z"/>
					</g>
					<polyline style="fill:none;stroke:#263238;stroke-miterlimit:10;" points="210.103,398.943 245.932,402.201 281.75,330.527 
						308.994,295.993 					"/>
				</g>
			</g>
			<g>
				<g>
					<g>
						<polygon style="fill:#FFFFFF;stroke:#263238;stroke-miterlimit:10;" points="286.754,395.119 294.174,424.653 
							311.633,425.667 305.156,394.48 						"/>
						<g>
							<line style="fill:none;stroke:#263238;stroke-miterlimit:10;" x1="289.596" y1="395.021" x2="297.729" y2="425.142"/>
							<line style="fill:none;stroke:#263238;stroke-miterlimit:10;" x1="293.8" y1="394.888" x2="301.934" y2="425.009"/>
							<line style="fill:none;stroke:#263238;stroke-miterlimit:10;" x1="297.622" y1="394.202" x2="305.215" y2="424.966"/>
							<line style="fill:none;stroke:#263238;stroke-miterlimit:10;" x1="301.293" y1="394.302" x2="308.957" y2="425.304"/>
						</g>
					</g>
					<g>
						<polygon style="fill:#FFFFFF;stroke:#263238;stroke-miterlimit:10;" points="256.137,455.407 321.425,455.407 
							317.396,422.357 284.598,423.664 283.864,436.693 						"/>
						<g>
							<g>
								<g>
									<g>
										<path style="fill:#263238;" d="M272.258,441.421c1.025,2.246,2.049,4.493,3.073,6.739c0.147,0.321,0.293,0.643,0.44,0.964
											c0.2,0.439,0.847,0.058,0.648-0.379c-1.024-2.246-2.049-4.493-3.073-6.739c-0.147-0.321-0.293-0.643-0.44-0.964
											C272.706,440.603,272.059,440.984,272.258,441.421L272.258,441.421z"/>
									</g>
								</g>
								<g>
									<g>
										<path style="fill:#263238;" d="M277.426,438.558c1.025,2.246,2.049,4.493,3.073,6.739c0.147,0.321,0.293,0.643,0.44,0.964
											c0.2,0.439,0.847,0.058,0.648-0.379c-1.024-2.246-2.049-4.493-3.073-6.739c-0.147-0.321-0.293-0.643-0.44-0.964
											C277.874,437.741,277.227,438.121,277.426,438.558L277.426,438.558z"/>
									</g>
								</g>
							</g>
							<g>
								<g>
									<g>
										<path style="fill:#263238;" d="M281.761,436.824c-1.801-0.719-3.563-1.564-5.274-2.475
											c-1.362-0.725-2.702-1.508-3.95-2.419c-1.014-0.74-2.133-1.626-2.702-2.777c-0.48-0.971-0.138-1.896,0.645-2.602
											c0.689-0.622,1.559-0.583,2.359-0.201c1.106,0.528,2.013,1.452,2.818,2.354c0.973,1.09,1.832,2.279,2.639,3.495
											c1.105,1.664,2.138,3.393,3.041,5.176c0.218,0.431,0.866,0.051,0.648-0.379c-0.847-1.671-1.811-3.293-2.835-4.861
											c-0.843-1.292-1.744-2.555-2.754-3.722c-0.867-1.003-1.852-2.019-3.04-2.64c-0.897-0.469-1.943-0.665-2.866-0.151
											c-0.928,0.517-1.726,1.67-1.647,2.757c0.088,1.207,1.001,2.229,1.848,3.01c1.187,1.095,2.565,1.985,3.957,2.795
											c2.21,1.286,4.539,2.415,6.914,3.363C282.01,437.726,282.204,437.001,281.761,436.824z"/>
									</g>
								</g>
								<g>
									<g>
										<path style="fill:#263238;" d="M277.963,423.315c1.087,4.149,2.175,8.298,3.262,12.447
											c0.156,0.593,0.311,1.187,0.467,1.78c0.122,0.466,0.846,0.269,0.723-0.199c-1.087-4.149-2.175-8.298-3.262-12.447
											c-0.155-0.593-0.311-1.187-0.467-1.78C278.564,422.649,277.84,422.847,277.963,423.315L277.963,423.315z"/>
									</g>
								</g>
							</g>
						</g>
						<path style="fill:#D880A6;stroke:#263238;stroke-width:0.75;stroke-miterlimit:10;" d="M301.355,454.186
							c0,0.412,0.031,0.816,0.062,1.221h20.008l-2.056-16.868c-0.72-0.1-1.449-0.17-2.196-0.17
							C308.437,438.369,301.355,445.45,301.355,454.186z"/>
					</g>
				</g>
				<g>
					<g>
						<path style="fill:#D880A6;" d="M379.543,288.067c0,0,2.688,36.596-15.118,39.637c-17.806,3.041-62.314,2.625-62.314,2.625
							l13.862,68.18l-35.784,1.738c0,0-24.419-69.485-24.427-81.665c-0.012-18.244,19.428-27.755,43.052-30.515
							C322.437,285.306,379.543,288.067,379.543,288.067z"/>
						<path style="opacity:0.6;" d="M379.543,288.067c0,0,2.688,36.596-15.118,39.637c-17.806,3.041-62.314,2.625-62.314,2.625
							l13.862,68.18l-35.784,1.738c0,0-24.419-69.485-24.427-81.665c-0.012-18.244,19.428-27.755,43.052-30.515
							C322.437,285.306,379.543,288.067,379.543,288.067z"/>
					</g>
					<path style="fill:none;stroke:#263238;stroke-miterlimit:10;" d="M315.973,398.509l-35.784,1.738
						c0,0-24.419-69.485-24.427-81.665c-0.012-18.244,19.428-27.755,43.052-30.515c23.624-2.76,80.729,0,80.729,0"/>
				</g>
			</g>
		</g>
	</g>
</g>
<g id="Device">
	<g>
		<g>
			<path style="fill:#263238;" d="M255.791,263.414H153.792c-8.18,0-14.81-6.631-14.81-14.81v-58.795
				c0-8.179,6.631-14.81,14.81-14.81h101.999c8.179,0,14.81,6.631,14.81,14.81v58.795
				C270.601,256.783,263.97,263.414,255.791,263.414z"/>
			<g>
				<polygon style="fill:#4D5A64;" points="186.547,214.328 168.737,283.179 196.538,283.179 212.393,214.328 				"/>
				<polygon style="fill:#4D5A64;" points="169.938,278.535 168.737,283.179 220.212,283.179 220.212,278.535 				"/>
			</g>
		</g>
		<rect x="217.009" y="278.535" style="fill:#263238;" width="93.765" height="5.404"/>
	</g>
</g>
<g id="Desk">
	<g>
		<rect x="101.017" y="283.179" style="fill:#263238;" width="348.593" height="11.529"/>
		<g>
			<rect x="138.982" y="288.943" style="fill:#263238;" width="10.425" height="167.529"/>
			<rect x="401.97" y="288.943" style="fill:#263238;" width="10.425" height="167.529"/>
		</g>
	</g>
</g>
<g id="Speech_Bubble_1_">
	<g>
		<g>
			<path style="fill:#FFFFFF;stroke:#4D5A64;stroke-miterlimit:10;" d="M241.844,110.714h38.559c4.926,0,8.92,3.796,8.92,8.479
				v14.963v5.233v16.393l-9.069-7.915h-38.41c-4.926,0-8.92-3.796-8.92-8.479v-20.196
				C232.924,114.51,236.917,110.714,241.844,110.714z"/>
		</g>
		<g>
			<path style="fill:#FFFFFF;stroke:#263238;stroke-miterlimit:10;" d="M230.733,98.645h38.559c4.927,0,8.92,3.796,8.92,8.479
				v14.963v5.233v16.393l-9.069-7.915h-38.41c-4.926,0-8.92-3.796-8.92-8.479v-20.196
				C221.813,102.441,225.807,98.645,230.733,98.645z"/>
			<g>
				<path style="fill:#263238;" d="M258.836,117.895c0,2.036,1.736,3.686,3.878,3.686c2.142,0,3.878-1.65,3.878-3.686
					s-1.737-3.686-3.878-3.686C260.573,114.208,258.836,115.859,258.836,117.895z"/>
				<ellipse style="fill:#263238;" cx="249.223" cy="117.895" rx="3.878" ry="3.686"/>
				<path style="fill:#263238;" d="M231.854,117.895c0,2.036,1.736,3.686,3.878,3.686c2.142,0,3.878-1.65,3.878-3.686
					s-1.736-3.686-3.878-3.686C233.59,114.208,231.854,115.859,231.854,117.895z"/>
			</g>
		</g>
	</g>
</g>
<g id="Mug">
	<g>
		<g>
			<path style="fill:#FFFFFF;stroke:#263238;stroke-miterlimit:10;" d="M394.217,255.766c-5.721,0-10.359,4.638-10.359,10.359
				s4.638,10.359,10.359,10.359c5.721,0,10.359-4.638,10.359-10.359S399.938,255.766,394.217,255.766z M394.217,272.671
				c-3.615,0-6.546-2.931-6.546-6.546c0-3.615,2.931-6.546,6.546-6.546c3.615,0,6.546,2.931,6.546,6.546
				C400.763,269.74,397.832,272.671,394.217,272.671z"/>
			<path style="fill:#FFFFFF;stroke:#263238;stroke-miterlimit:10;" d="M388.781,282.75h-16.805c-3.243,0-5.873-2.629-5.873-5.873
				v-21.14c0-3.243,2.629-5.873,5.873-5.873h16.805c3.243,0,5.873,2.629,5.873,5.873v21.14
				C394.654,280.12,392.025,282.75,388.781,282.75z"/>
			<g>
				<g>
					<path style="fill:#D880A6;" d="M376.647,261.998c0,0-2.908-4.781-4.252-4.496c-1.344,0.285-1.769,8.386-1.061,7.949
						C372.042,265.014,376.647,261.998,376.647,261.998z"/>
					<path style="fill:#D880A6;" d="M384.022,261.998c0,0,2.908-4.781,4.252-4.496c1.344,0.285,1.769,8.386,1.061,7.949
						C388.627,265.014,384.022,261.998,384.022,261.998z"/>
				</g>
				<g>
					<ellipse style="fill:#D880A6;" cx="380.379" cy="266.957" rx="10.04" ry="8.167"/>
				</g>
				<g>
					<path style="fill:#263238;" d="M386.848,264.633c0,0.377-0.286,0.683-0.639,0.683c-0.353,0-0.639-0.306-0.639-0.683
						c0-0.377,0.286-0.683,0.639-0.683C386.561,263.95,386.848,264.256,386.848,264.633z"/>
					<g>
						<path style="fill:#263238;" d="M383.78,266.125c0,0.14-0.106,0.254-0.237,0.254c-0.131,0-0.238-0.114-0.238-0.254
							c0-0.14,0.106-0.254,0.238-0.254C383.674,265.871,383.78,265.984,383.78,266.125z"/>
						<ellipse style="fill:#263238;" cx="383.583" cy="267.09" rx="0.237" ry="0.254"/>
						<path style="fill:#263238;" d="M384.526,266.525c0,0.14-0.106,0.254-0.237,0.254c-0.131,0-0.238-0.114-0.238-0.254
							c0-0.14,0.106-0.254,0.238-0.254C384.42,266.272,384.526,266.385,384.526,266.525z"/>
					</g>
					<g>
						<path style="fill:#263238;" d="M377.393,266.353c0,0.14,0.106,0.254,0.237,0.254s0.238-0.114,0.238-0.254
							c0-0.14-0.106-0.254-0.238-0.254S377.393,266.213,377.393,266.353z"/>
						<path style="fill:#263238;" d="M377.353,267.319c0,0.14,0.106,0.254,0.237,0.254c0.131,0,0.238-0.114,0.238-0.254
							c0-0.14-0.106-0.254-0.238-0.254C377.459,267.065,377.353,267.178,377.353,267.319z"/>
						<path style="fill:#263238;" d="M376.647,266.754c0,0.14,0.106,0.254,0.238,0.254c0.131,0,0.237-0.114,0.237-0.254
							c0-0.14-0.106-0.254-0.237-0.254C376.754,266.5,376.647,266.614,376.647,266.754z"/>
					</g>
					<ellipse style="fill:#263238;" cx="374.357" cy="264.785" rx="0.639" ry="0.683"/>
					<g>
						<path style="fill:#263238;" d="M379.596,268.004c-0.155,0.842-0.028,2.693,1.12,2.693c1.148,0,1.275-1.853,1.12-2.693
							c-0.038-0.207-0.334-0.119-0.296,0.087c0.112,0.604,0.082,2.278-0.824,2.278c-0.905,0-0.936-1.67-0.824-2.278
							C379.93,267.885,379.635,267.797,379.596,268.004L379.596,268.004z"/>
					</g>
					<path style="fill:#263238;" d="M381.648,265.676c0-0.388-0.413-0.702-0.923-0.702c-0.51,0-0.923,0.314-0.923,0.702
						c0,0.346,0.336,0.621,0.77,0.678c0,0.419,0,0.838,0,1.257c0,0.211,0.307,0.211,0.307,0c0-0.419,0-0.838,0-1.257
						C381.313,266.297,381.648,266.022,381.648,265.676z"/>
				</g>
			</g>
		</g>
		<g>
			
				<ellipse transform="matrix(0.1606 -0.987 0.987 0.1606 88.7031 585.2545)" style="fill:#EAEAEA;" cx="388.425" cy="240.478" rx="7.42" ry="7.42"/>
			<ellipse style="fill:#EAEAEA;" cx="406.74" cy="219.465" rx="19.778" ry="17.66"/>
		</g>
	</g>
</g>
<g id="Floor">
	<line style="fill:none;stroke:#263238;stroke-miterlimit:10;" x1="46.289" y1="456.231" x2="453.711" y2="456.231"/>
</g>
</svg>
